<?xml version="1.0" encoding="UTF-8"?>
<svg version="1.1" xmlns="http://www.w3.org/2000/svg" width="512" height="512">
<path d="M0 0 C20.79 0 41.58 0 63 0 C67.49990397 11.24975993 67.49990397 11.24975993 69.01925659 15.82398987 C69.36633163 16.86391083 69.71340668 17.90383179 70.07099915 18.9752655 C70.43670517 20.08114517 70.80241119 21.18702484 71.17919922 22.32641602 C71.57669876 23.52022888 71.9741983 24.71404175 72.38374329 25.94403076 C73.24373032 28.52690645 74.10183189 31.11039774 74.95843124 33.69439888 C76.32886508 37.82831082 77.70373858 41.96073833 79.07913208 46.09300232 C81.51942455 53.42652966 83.9560052 60.76128616 86.39178467 68.09631348 C90.47860487 80.40305547 94.56952469 92.70843539 98.66321659 105.0128932 C99.13257928 106.42371511 99.60189321 107.83455324 100.07115841 109.24540758 C107.29113284 130.9521025 114.58244235 152.63300272 122.03661156 174.26059437 C123.82198812 179.44947482 125.54427011 184.65755951 127.23361206 189.87843323 C127.81423724 191.95583941 127.81423724 191.95583941 129 193 C129.33507568 192.00935547 129.67015137 191.01871094 130.01538086 189.99804688 C136.93054465 169.57253658 143.95720229 149.19121898 151.1875 128.875 C157.44775062 111.28177297 163.60326122 93.65486791 169.6875 76 C170.48856433 73.67674318 171.28967078 71.35350088 172.09082031 69.03027344 C172.48251404 67.89436768 172.87420776 66.75846191 173.277771 65.58813477 C173.85957123 63.90095337 173.85957123 63.90095337 174.453125 62.1796875 C174.8369635 61.06650146 175.220802 59.95331543 175.61627197 58.80639648 C179.07809234 48.76879317 182.54551619 38.73318645 186.03897095 28.70654297 C186.6284156 27.01302322 187.21649568 25.31902777 187.80307007 23.62451172 C188.60329938 21.31347311 189.4084185 19.00419511 190.21484375 16.6953125 C190.440047 16.04160675 190.66525024 15.387901 190.89727783 14.71438599 C192.67915568 9.64032732 194.79397855 4.96354827 197 0 C217.46 0 237.92 0 259 0 C259 82.17 259 164.34 259 249 C244.81 249 230.62 249 216 249 C215.97729332 229.64797017 215.95892868 210.29595139 215.94818783 190.94391155 C215.94306474 181.95535996 215.93609957 172.96681732 215.92456055 163.97827148 C215.91449026 156.12998043 215.90811771 148.28169588 215.90591151 140.43339854 C215.90462501 136.29042143 215.90167378 132.14746288 215.89426994 128.00449181 C215.86428044 110.56082527 215.99977104 93.16801341 216.77857971 75.73713684 C217.13359814 67.493217 217.0904311 59.24932588 217 51 C216.80558319 51.5626355 216.61116638 52.125271 216.41085815 52.70495605 C206.66290764 80.91278499 196.88586215 109.10975519 187.00830078 137.27246094 C183.10382668 148.40608397 179.2052448 159.54177251 175.30679321 170.67750549 C174.85374408 171.97160858 174.40068021 173.26570652 173.94760132 174.55979919 C165.26429018 199.36138152 156.62339937 224.17750462 148 249 C134.47 249 120.94 249 107 249 C102.50009466 237.75023666 102.50009466 237.75023666 100.75296021 232.49266052 C100.35540024 231.30128479 99.95784027 230.10990906 99.54823303 228.88243103 C99.12210803 227.59538525 98.69603871 226.30832104 98.27001953 225.02124023 C97.8096561 223.63794318 97.34902092 222.25473654 96.88813782 220.87161255 C95.90046655 217.90568052 94.91468282 214.93913049 93.93039322 211.97207451 C92.35831251 207.23327935 90.78182346 202.49595762 89.20480347 197.75880432 C86.4094106 189.35996919 83.61773144 180.95990321 80.82684326 172.55957031 C76.13757733 158.44547628 71.44416899 144.33275906 66.74806118 130.22094011 C66.21317165 128.6135394 65.67833134 127.00612231 65.14354038 125.39868879 C56.87929627 100.55888841 48.54635473 75.74447295 40 51 C39.89114706 57.51908141 39.97254602 63.98655008 40.35295963 70.49317646 C41.30660765 87.06405868 41.12850954 103.65416551 41.10139394 120.24564385 C41.09506211 124.78592796 41.09454894 129.32621302 41.09336853 133.86650085 C41.09028378 142.42938864 41.08210966 150.99226336 41.07201904 159.55514544 C41.06076823 169.31844367 41.05532505 179.08174257 41.05032361 188.84504569 C41.03992403 208.89670599 41.02161491 228.94834844 41 249 C27.47 249 13.94 249 0 249 C0 166.83 0 84.66 0 0 Z " fill="#3A3A3A" transform="translate(240,132)"/>
<path d="M0 0 C14.85 0 29.7 0 45 0 C45 33 45 66 45 100 C80.64 100 116.28 100 153 100 C153 67 153 34 153 0 C168.18 0 183.36 0 199 0 C199 82.17 199 164.34 199 249 C183.82 249 168.64 249 153 249 C153 212.7 153 176.4 153 139 C117.36 139 81.72 139 45 139 C45 175.3 45 211.6 45 249 C30.15 249 15.3 249 0 249 C0 166.83 0 84.66 0 0 Z " fill="#3A3A3A" transform="translate(13,132)"/>
</svg>
