<?xml version="1.0" encoding="UTF-8"?>
<svg version="1.1" xmlns="http://www.w3.org/2000/svg" width="512" height="512">
<path d="M0 0 C9.3474499 6.85263658 14.61798645 16.1354079 20.56054688 25.88525391 C22.90705246 29.7196389 25.29560876 33.52713976 27.68334961 37.3359375 C29.59195141 40.38059413 31.49583739 43.42815232 33.3984375 46.4765625 C36.55901472 51.53971616 39.72154198 56.60164634 42.88525391 61.6628418 C44.13380209 63.66029052 45.38217372 65.65784962 46.63037109 67.65551758 C49.7403918 72.63276398 52.85243763 77.60872138 55.96875 82.58203125 C62.5037569 93.01625607 68.99986253 103.47262193 75.44140625 113.96484375 C80.49289221 122.19179122 85.58339058 130.39051883 90.75341797 138.54345703 C96.65617924 147.8526489 102.48500121 157.20794557 108.32177734 166.55859375 C110.24153397 169.6325331 112.16336883 172.70516251 114.0859375 175.77734375 C120.53113729 186.07791026 126.95617922 196.39027525 133.34472656 206.72607422 C139.31137272 216.37330217 145.32938734 225.98831544 151.34667969 235.60400391 C155.10684089 241.61390826 158.86316246 247.62621351 162.61962891 253.63842773 C166.43732409 259.74803686 170.25947534 265.85482975 174.0847168 271.9597168 C175.96987168 274.97294299 177.84865837 277.99006365 179.7265625 281.0078125 C181.95755323 284.59088201 184.21403112 288.15491292 186.5 291.703125 C196.0299347 306.61532268 200.8643772 320.47238913 197.59375 338.23828125 C194.06994847 351.08261409 186.82183947 361.63669575 175.2578125 368.40625 C167.82855999 372.25536335 161.02067636 374.89908489 152.55395985 374.90961266 C151.23766616 374.91606155 149.92137247 374.92251044 148.56519109 374.92915475 C147.11628036 374.92621287 145.66737002 374.92307747 144.21846008 374.91976929 C142.67004382 374.92350772 141.12162944 374.92811001 139.57321805 374.93349993 C135.32518739 374.9457217 131.07723555 374.94547043 126.82919133 374.94311118 C122.24484428 374.9427028 117.66052242 374.95374423 113.07618713 374.96322632 C104.09677373 374.97983318 95.11738658 374.98533574 86.1379591 374.98645107 C78.83750002 374.98740177 71.53704959 374.99151315 64.23659325 374.99785233 C43.53182317 375.01546448 22.82707382 375.02469133 2.12229619 375.02319138 C1.00629636 375.02311147 -0.10970347 375.02303155 -1.25952148 375.02294922 C-2.3768864 375.02286746 -3.49425132 375.0227857 -4.64547578 375.02270146 C-22.74970035 375.02188874 -40.85384168 375.04102292 -58.95804217 375.06922595 C-77.55381172 375.09796579 -96.14954069 375.11176561 -114.74533302 375.1100384 C-125.18279873 375.10937484 -135.62017721 375.11485209 -146.05762291 375.1363945 C-154.94529103 375.15462083 -163.83283237 375.15894174 -172.7205111 375.14537565 C-177.25265649 375.13885313 -181.78455876 375.13870284 -186.31668091 375.15608215 C-190.47137749 375.17184985 -194.62563894 375.16891177 -198.78032515 375.15151389 C-200.27762969 375.14845208 -201.77496699 375.15204531 -203.27223285 375.16323404 C-218.17899222 375.26718789 -230.73492252 371.77332996 -242 361.62109375 C-252.06305041 351.08066903 -256.26396061 338.48384289 -256.09423828 324.20556641 C-255.60384111 307.52132399 -246.46685329 295.33155186 -237.74609375 281.65234375 C-236.72526547 280.03206645 -235.70564539 278.41102701 -234.6875 276.7890625 C-232.75353482 273.71267063 -230.81152287 270.64158817 -228.86328125 267.57421875 C-225.36080421 262.05393701 -221.89616403 256.51021671 -218.43359375 250.96484375 C-217.80332275 249.95558838 -217.17305176 248.94633301 -216.52368164 247.90649414 C-215.23881031 245.84870897 -213.95406161 243.79084723 -212.66943359 241.73291016 C-210.15256557 237.70170417 -207.6337758 233.67170114 -205.11474609 229.6418457 C-203.86619791 227.64439698 -202.61782628 225.64683788 -201.36962891 223.64916992 C-198.2596082 218.67192352 -195.14756237 213.69596612 -192.03125 208.72265625 C-185.4962431 198.28843143 -179.00013747 187.83206557 -172.55859375 177.33984375 C-167.50710779 169.11289628 -162.41660942 160.91416867 -157.24658203 152.76123047 C-151.34382076 143.4520386 -145.51499879 134.09674193 -139.67822266 124.74609375 C-137.75846603 121.6721544 -135.83663117 118.59952499 -133.9140625 115.52734375 C-128.0038758 106.08182257 -122.10433816 96.63018485 -116.24609375 87.15234375 C-109.75630371 76.6527479 -103.21447889 66.18603595 -96.66650391 55.72265625 C-94.09585978 51.61276297 -91.52909349 47.5004546 -88.96264648 43.38793945 C-87.08632794 40.38424193 -85.20537308 37.38348306 -83.32421875 34.3828125 C-80.99881467 30.67005081 -78.69798906 26.94391101 -76.41796875 23.203125 C-67.13201711 8.04941625 -58.09214521 -2.67076184 -40.30078125 -7.65234375 C-26.07231239 -10.4354948 -12.19428449 -8.00555756 0 0 Z M-39.74609375 28.65234375 C-44.86107671 35.38372217 -49.30324343 42.59394874 -53.74609375 49.77734375 C-55.07020662 51.9076179 -56.39442841 54.03782435 -57.71875 56.16796875 C-58.38793457 57.24626953 -59.05711914 58.32457031 -59.74658203 59.43554688 C-62.26731401 63.49087833 -64.80283558 67.53683647 -67.33862305 71.58276367 C-73.24905419 81.01583367 -79.10944939 90.47826457 -84.93359375 99.96484375 C-89.98507971 108.19179122 -95.07557808 116.39051883 -100.24560547 124.54345703 C-106.14836674 133.8526489 -111.97718871 143.20794557 -117.81396484 152.55859375 C-119.73372147 155.6325331 -121.65555633 158.70516251 -123.578125 161.77734375 C-129.4883117 171.22286493 -135.38784934 180.67450265 -141.24609375 190.15234375 C-147.74037152 200.65920014 -154.28651882 211.13329102 -160.83886719 221.60400391 C-163.97650938 226.61892971 -167.11116508 231.6357214 -170.24609375 236.65234375 C-171.49607912 238.6523529 -172.74607912 240.65235289 -173.99609375 242.65234375 C-174.61484375 243.64234375 -175.23359375 244.63234375 -175.87109375 245.65234375 C-181.49609375 254.65234375 -181.49609375 254.65234375 -183.37133789 257.65258789 C-184.62069967 259.65166436 -185.86988602 261.65085049 -187.11889648 263.65014648 C-190.25222829 268.66519247 -193.38863114 273.67826762 -196.53125 278.6875 C-202.95393 288.93166632 -209.33245013 299.20022573 -215.62109375 309.52734375 C-216.22252197 310.51484619 -216.8239502 311.50234863 -217.44360352 312.51977539 C-221.60482318 319.37279734 -223.6404468 323.46460454 -222.74609375 331.65234375 C-220.39816717 336.52880665 -217.45848521 339.05571989 -212.74609375 341.65234375 C-208.98321491 342.62731649 -205.44265758 342.7792991 -201.56497574 342.78377151 C-200.31351517 342.78761266 -199.0620546 342.7914538 -197.77267098 342.79541135 C-196.38655355 342.79463116 -195.00043617 342.79375238 -193.61431885 342.79278564 C-192.13973849 342.79537005 -190.66515882 342.79838343 -189.19058013 342.80178905 C-185.13748545 342.80985331 -181.08440849 342.8116483 -177.03130674 342.81238651 C-172.66035201 342.81423805 -168.28940645 342.82178586 -163.91845703 342.82852173 C-154.36060366 342.84210118 -144.80275449 342.84812908 -135.24489307 342.85253239 C-129.27692641 342.85529529 -123.30896136 342.85953271 -117.34099579 342.86403656 C-100.81717658 342.87622839 -84.29335867 342.88652809 -67.76953506 342.88991165 C-66.7120699 342.89013122 -65.65460474 342.89035078 -64.56509517 342.890577 C-63.50510343 342.89079528 -62.44511168 342.89101356 -61.35299897 342.89123845 C-59.20505921 342.89168192 -57.05711945 342.89212848 -54.90917969 342.89257812 C-53.31100201 342.89291027 -53.31100201 342.89291027 -51.68053791 342.89324912 C-34.41482421 342.89719749 -17.14915271 342.91465309 0.11654469 342.93793765 C17.84325266 342.96165097 35.56993944 342.97411348 53.29666352 342.97527957 C63.24947295 342.9761963 73.20222739 342.98194831 83.15502167 343.00009918 C91.62961636 343.01549985 100.10413907 343.0206208 108.5787451 343.01236108 C112.90186792 343.00845456 117.22484576 343.00938431 121.54795074 343.02341843 C125.50821198 343.03615699 129.4682193 343.03496029 133.42848018 343.02282771 C134.85849727 343.02087065 136.28853235 343.02394963 137.71852419 343.03267208 C150.07910254 343.40503739 150.07910254 343.40503739 160.86468863 338.20041013 C164.70862685 333.74400417 165.86402064 330.43667875 165.7734375 324.6640625 C164.67451015 318.29358893 160.69072695 313.01023905 157.25390625 307.65234375 C156.36050764 306.2274841 155.46863389 304.80166745 154.578125 303.375 C152.59236489 300.2051778 150.59193472 297.04519036 148.58203125 293.890625 C145.00299508 288.26871603 141.46997872 282.61852198 137.94140625 276.96484375 C137.31306885 275.95848877 136.68473145 274.95213379 136.03735352 273.9152832 C134.75347377 271.8589535 133.46970161 269.80255661 132.18603516 267.74609375 C130.26627853 264.6721544 128.34444367 261.59952499 126.421875 258.52734375 C119.97667521 248.22677724 113.55163328 237.91441225 107.16308594 227.57861328 C101.19643978 217.93138533 95.17842516 208.31637206 89.16113281 198.70068359 C86.02349062 193.68575779 82.88883492 188.6689661 79.75390625 183.65234375 C78.50392088 181.6523346 77.25392088 179.65233461 76.00390625 177.65234375 C72.25390625 171.65234375 72.25390625 171.65234375 68.50390625 165.65234375 C67.88523682 164.66250488 67.26656738 163.67266602 66.62915039 162.65283203 C65.37821956 160.65127756 64.1274059 158.64964986 62.87670898 156.64794922 C59.76690356 151.67112779 56.65512294 146.69556407 53.5390625 141.72265625 C47.0040556 131.28843143 40.50794997 120.83206557 34.06640625 110.33984375 C29.01492029 102.11289628 23.92442192 93.91416867 18.75439453 85.76123047 C14.79151923 79.51141537 10.86233356 73.24105031 6.94140625 66.96484375 C6.3175 65.96912354 5.69359375 64.97340332 5.05078125 63.94750977 C1.72750714 58.63869855 -1.56757485 53.31482227 -4.82421875 47.96484375 C-5.49155029 46.87647217 -6.15888184 45.78810059 -6.84643555 44.66674805 C-8.12218117 42.58495088 -9.38974497 40.49810992 -10.64770508 38.40551758 C-14.23678281 32.57121087 -17.46859675 27.79109225 -23.74609375 24.65234375 C-30.16312014 23.94831747 -34.84514536 24.07812525 -39.74609375 28.65234375 Z " fill="#2ABEE2" transform="translate(284.74609375,73.34765625)"/>
<path d="M0 0 C4.84010385 3.09669113 7.15344379 7.1265689 8.55078125 12.5546875 C8.79054688 13.45832031 9.0303125 14.36195313 9.27734375 15.29296875 C12.4169055 29.5723008 10.81450564 43.73909319 9.27441406 58.11328125 C8.39061109 66.38729328 7.62000077 74.66346562 6.94140625 82.95703125 C6.85727478 83.97398071 6.77314331 84.99093018 6.6864624 86.03869629 C6.34839007 90.12992805 6.01040358 94.22106014 5.6907959 98.31378174 C3.26286713 129.34594699 3.26286713 129.34594699 -3.07421875 136.2421875 C-6.71640526 138.35082179 -9.91230547 138.75180953 -14.07421875 138.2421875 C-18.97950389 135.7414539 -21.1396117 133.36889617 -23.07421875 128.2421875 C-25.52218061 119.35298802 -25.92784246 110.24909134 -26.58203125 101.09375 C-26.71331319 99.3136417 -26.84498344 97.53356199 -26.97702026 95.75350952 C-27.25189088 92.0268936 -27.52194042 88.29996793 -27.78857422 84.57275391 C-28.12672412 79.85138135 -28.47693829 75.13099905 -28.83093452 70.4107914 C-29.10539384 66.73200429 -29.37312557 63.05274932 -29.63900375 59.37333298 C-29.76532757 57.63608281 -29.89363905 55.89897574 -30.02417374 54.1620369 C-30.70293412 45.08084952 -31.19428787 36.02792745 -31.24951172 26.91943359 C-31.25793154 26.14118036 -31.26635136 25.36292713 -31.27502632 24.56109047 C-31.26045755 17.416315 -30.20995847 10.89807362 -25.42578125 5.3203125 C-18.61511415 -0.92527741 -8.90221012 -3.25240822 0 0 Z " fill="#2ABEE2" transform="translate(266.07421875,184.7578125)"/>
<path d="M0 0 C5.51913502 4.41530801 8.1156492 9.19600818 8.96875 16.1953125 C9.03277867 21.94188546 7.97662732 26.65411263 4.22265625 31.109375 C-1.18222176 36.13041331 -6.31987352 38.56403877 -13.85546875 38.3046875 C-20.1042126 37.41688783 -24.6511606 34.93730813 -28.5 29.9375 C-32.44376073 24.23000184 -32.6666806 18.77791941 -32 12 C-30.38129044 6.68640994 -27.78078058 2.93366081 -23 0 C-15.26780295 -3.76822261 -7.62449329 -4.4251961 0 0 Z " fill="#2ABEE2" transform="translate(268,348)"/>
</svg>
